<svg width="128" height="128" viewBox="0 0 128 128" fill="none" xmlns="http://www.w3.org/2000/svg">
  <rect width="128" height="128" rx="28" fill="#F7F6F1"/>
  <circle cx="64" cy="68" r="34" fill="#FEFDFC" stroke="#D7DBD2" stroke-width="4"/>
  <ellipse cx="44" cy="42" rx="12" ry="16" transform="rotate(-24 44 42)" fill="#161715"/>
  <ellipse cx="84" cy="42" rx="12" ry="16" transform="rotate(24 84 42)" fill="#161715"/>
  <ellipse cx="50" cy="65" rx="10" ry="13" transform="rotate(-18 50 65)" fill="#161715"/>
  <ellipse cx="78" cy="65" rx="10" ry="13" transform="rotate(18 78 65)" fill="#161715"/>
  <circle cx="52" cy="66" r="3.5" fill="#FEFDFC"/>
  <circle cx="76" cy="66" r="3.5" fill="#FEFDFC"/>
  <ellipse cx="64" cy="83" rx="9" ry="6" fill="#161715"/>
  <path d="M56 92C58.8 96 61.9 98 64 98C66.1 98 69.2 96 72 92" stroke="#5F7F62" stroke-width="4" stroke-linecap="round"/>
  <path d="M24 104C40 92 52 88 64 88C76 88 88 92 104 104" stroke="#5F7F62" stroke-width="6" stroke-linecap="round" stroke-linejoin="round" opacity="0.85"/>
</svg>
