<svg width="420" height="300" viewBox="0 0 420 300" fill="none" xmlns="http://www.w3.org/2000/svg">
  <rect x="40" y="28" width="300" height="212" rx="48" fill="#FDFCF8" stroke="#D7DBD2" stroke-width="2"/>
  <circle cx="204" cy="138" r="74" fill="#FEFDFC" stroke="#D7DBD2" stroke-width="4"/>
  <ellipse cx="148" cy="86" rx="28" ry="36" transform="rotate(-26 148 86)" fill="#161715"/>
  <ellipse cx="260" cy="86" rx="28" ry="36" transform="rotate(26 260 86)" fill="#161715"/>
  <ellipse cx="172" cy="140" rx="26" ry="34" transform="rotate(-18 172 140)" fill="#161715"/>
  <ellipse cx="236" cy="140" rx="26" ry="34" transform="rotate(18 236 140)" fill="#161715"/>
  <circle cx="178" cy="142" r="8" fill="#FEFDFC"/>
  <circle cx="230" cy="142" r="8" fill="#FEFDFC"/>
  <ellipse cx="204" cy="184" rx="20" ry="13" fill="#161715"/>
  <path d="M186 206C193.5 216 200 221 204 221C208 221 214.5 216 222 206" stroke="#5F7F62" stroke-width="6" stroke-linecap="round"/>
  <path d="M92 248C128 224 165 212 204 212C243 212 280 224 316 248" stroke="#5F7F62" stroke-width="10" stroke-linecap="round" stroke-linejoin="round" opacity="0.9"/>
  <path d="M330 30C343.5 53.5 348 78.5 344 105" stroke="#5F7F62" stroke-width="8" stroke-linecap="round"/>
  <path d="M353 40C366 66 368 92 360 121" stroke="#7E9B80" stroke-width="6" stroke-linecap="round" opacity="0.95"/>
  <path d="M312 54C329 67 339 80 346 99" stroke="#A7BAA4" stroke-width="4" stroke-linecap="round" opacity="0.85"/>
  <path d="M63 44C76 67.5 80 91 76 117" stroke="#5F7F62" stroke-width="8" stroke-linecap="round" opacity="0.85"/>
  <path d="M86 58C97 81 100 101 94 126" stroke="#7E9B80" stroke-width="6" stroke-linecap="round" opacity="0.92"/>
  <circle cx="349" cy="149" r="31" fill="#EEF5EF"/>
  <path d="M349 131V167" stroke="#5F7F62" stroke-width="7" stroke-linecap="round"/>
  <path d="M334 146H364" stroke="#5F7F62" stroke-width="7" stroke-linecap="round"/>
</svg>
